<svg id="Layer_1" data-name="Layer 1" xmlns="http://www.w3.org/2000/svg" viewBox="0 0 256 256"><defs><style>.cls-1{fill:#0c2344;}.cls-2{fill:#44c1c3;}.cls-3{fill:#ecb92d;}.cls-4{fill:#df952d;}.cls-5{fill:#8dc63f;}.cls-6{fill:#39b54a;}.cls-7{fill:#fff;}</style></defs><title>CF7 logo</title><rect class="cls-1" width="256" height="256"/><path class="cls-2" d="M122.58,116.31a25.34,25.34,0,0,0-2,9.58v1.89c0,.64,0,1.29.06,1.94a19.85,19.85,0,0,0,.76,4,9,9,0,0,0,1.91,3.46,5.88,5.88,0,0,0,3.22,1.94,18.63,18.63,0,0,0,3.75.38h.52l14.4-.06v7.26h-14.8a35.33,35.33,0,0,1-6.83-.64,14.2,14.2,0,0,1-6.18-3,15.16,15.16,0,0,1-4.88-6.94,28.34,28.34,0,0,1-1.51-8.39q-.06-.93,0-1.8t.09-1.74q.64-9.87,5.37-14.52t14.2-4.64l14.57-.06v7.14h-14.4Q124.44,112.19,122.58,116.31Z"/><path class="cls-2" d="M155.13,110.27q3.81-5.22,16.69-5.22l13.36-.06v7.26H171.07c-3.68.07-6.38.87-8.1,2.38s-2.68,4.12-2.88,7.84l25.09-.06v7.2H160.09v17.07h-8.76V127.52Q151.33,115.49,155.13,110.27Z"/><path class="cls-2" d="M186.69,112.13V105h36.93v7.14l-25,34.55H187.44l26-34.55Z"/><polygon class="cls-2" points="53.64 99.88 53.64 119.13 70.31 128.75 86.98 119.13 86.98 99.88 70.31 90.25 53.64 99.88"/><polygon class="cls-3" points="99.17 129.9 90.43 124.85 73.76 134.47 73.76 147.1 99.17 147.1 99.17 129.9"/><polygon class="cls-4" points="100.61 130.73 100.61 148.55 73.76 148.55 73.76 153.72 90.43 163.34 107.1 153.72 107.1 134.47 100.61 130.73"/><polygon class="cls-5" points="65.72 147.1 65.72 134.47 49.05 124.85 41.55 129.18 41.55 147.1 65.72 147.1"/><polygon class="cls-6" points="40.11 130.01 32.38 134.47 32.38 153.72 49.05 163.34 65.72 153.72 65.72 148.55 40.11 148.55 40.11 130.01"/><polygon class="cls-7" points="42.99 125.39 42.99 111.66 49.05 111.66 49.05 107.34 38.67 107.34 38.67 127.98 42.99 125.39"/><polygon class="cls-7" points="97.73 125.96 102.06 128.38 102.06 107.34 91.67 107.34 91.67 111.66 97.73 111.66 97.73 125.96"/><path class="cls-7" d="M131.49,149.32l-4,12h-1.33l-3.5-10.19-3.52,10.19h-1.32l-4-12h1.3l3.45,10.28,3.57-10.28h1.18l3.51,10.33,3.5-10.33Z"/><path class="cls-7" d="M143.15,153.42c0,2.54-1.85,4.08-4.89,4.08h-3.21v3.77h-1.26v-12h4.47C141.3,149.32,143.15,150.86,143.15,153.42Zm-1.27,0c0-1.91-1.26-3-3.65-3h-3.18v6h3.18C140.62,156.39,141.88,155.3,141.88,153.42Z"/><path class="cls-7" d="M152.78,158.08h-6.66l-1.44,3.19h-1.31l5.46-12h1.25l5.46,12h-1.33Zm-.46-1-2.87-6.42-2.87,6.42Z"/><path class="cls-7" d="M166.37,156.78a4.35,4.35,0,0,1-4.48,4.58,3.92,3.92,0,0,1-3.41-1.78v5h-1.21V152.29h1.16v1.78a3.9,3.9,0,0,1,3.46-1.85A4.35,4.35,0,0,1,166.37,156.78Zm-1.21,0a3.35,3.35,0,1,0-3.35,3.5A3.31,3.31,0,0,0,165.16,156.78Z"/><path class="cls-7" d="M177.94,156.78a4.35,4.35,0,0,1-4.47,4.58,3.92,3.92,0,0,1-3.41-1.78v5h-1.22V152.29H170v1.78a3.93,3.93,0,0,1,3.47-1.85A4.35,4.35,0,0,1,177.94,156.78Zm-1.21,0a3.35,3.35,0,1,0-3.34,3.5A3.31,3.31,0,0,0,176.73,156.78Z"/><path class="cls-7" d="M179.17,160.25l.55-1a5.46,5.46,0,0,0,3.19,1c1.71,0,2.41-.58,2.41-1.47,0-2.34-5.82-.49-5.82-4.05,0-1.47,1.26-2.56,3.55-2.56a6.15,6.15,0,0,1,3.18.84l-.53,1a4.68,4.68,0,0,0-2.65-.77c-1.62,0-2.34.64-2.34,1.49,0,2.42,5.82.6,5.82,4.05,0,1.55-1.36,2.56-3.7,2.56A6,6,0,0,1,179.17,160.25Z"/><path class="cls-7" d="M189,149.32h4.87c3.83,0,6.4,2.46,6.4,6s-2.57,6-6.4,6H189Zm4.8,10.86c3.18,0,5.23-2,5.23-4.88s-2.05-4.89-5.23-4.89h-3.53v9.77Z"/><path class="cls-7" d="M210.69,157.16h-7.51a3.32,3.32,0,0,0,3.53,3.12,3.51,3.51,0,0,0,2.75-1.18l.69.79a4.75,4.75,0,0,1-8.18-3.11,4.33,4.33,0,0,1,4.39-4.56,4.28,4.28,0,0,1,4.35,4.56C210.71,156.88,210.69,157,210.69,157.16Zm-7.51-.91h6.37a3.19,3.19,0,0,0-6.37,0Z"/><path class="cls-7" d="M220.56,152.29l-4,9h-1.25l-4-9h1.26l3.37,7.65,3.4-7.65Z"/></svg>